<svg xmlns="http://www.w3.org/2000/svg" viewBox="0 0 32 32">
  <rect width="32" height="32" rx="6" fill="#4f46e5"/>
  <g transform="translate(6, 4)" stroke-linecap="round">
    <!-- Thread -->
    <line x1="10" y1="0.5" x2="10" y2="4" stroke="white" stroke-width="0.8"/>
    <!-- Head -->
    <circle cx="10" cy="6.2" r="2.2" fill="white"/>
    <!-- Eyes -->
    <circle cx="9" cy="5.9" r="0.5" fill="#4f46e5"/>
    <circle cx="11" cy="5.9" r="0.5" fill="#4f46e5"/>
    <!-- Pedicel -->
    <line x1="10" y1="8.4" x2="10" y2="9.6" stroke="white" stroke-width="1.1"/>
    <!-- Abdomen -->
    <ellipse cx="10" cy="13" rx="2.8" ry="3.2" fill="white"/>
    <!-- Left legs -->
    <path d="M7.8 8.5 C6.2 7.8 4.8 7.2 3 6.5" stroke="white" stroke-width="1" fill="none"/>
    <path d="M7.5 10 C5.8 9.7 4.2 9.4 2.5 9" stroke="white" stroke-width="1" fill="none"/>
    <path d="M7.5 11.8 C5.8 12.2 4.2 12.7 2.5 13.2" stroke="white" stroke-width="1" fill="none"/>
    <path d="M7.8 13.5 C6.2 14.5 4.8 15.3 3.5 16" stroke="white" stroke-width="1" fill="none"/>
    <!-- Right legs -->
    <path d="M12.2 8.5 C13.8 7.8 15.2 7.2 17 6.5" stroke="white" stroke-width="1" fill="none"/>
    <path d="M12.5 10 C14.2 9.7 15.8 9.4 17.5 9" stroke="white" stroke-width="1" fill="none"/>
    <path d="M12.5 11.8 C14.2 12.2 15.8 12.7 17.5 13.2" stroke="white" stroke-width="1" fill="none"/>
    <path d="M12.2 13.5 C13.8 14.5 15.2 15.3 16.5 16" stroke="white" stroke-width="1" fill="none"/>
  </g>
</svg>
